Format                                   : AVI
Format/Info                              : Audio Video Interleave
Format profile                           : OpenDML
File size                                : 1.73 GiB
Duration                                 : 2h 16mn
Overall bit rate                         : 1 818 Kbps
Writing application                      : MEncoder SVN-r30881(20100311-gcc4.3.3)
Writing library                          : MPlayer

Video
ID                                       : 0
Format                                   : MPEG-4 Visual
Format profile                           : Simple@L1
Format settings, BVOP                    : No
Format settings, QPel                    : No
Format settings, GMC                     : No warppoints
Format settings, Matrix                  : Default (H.263)
Codec ID                                 : DX50
Codec ID/Hint                            : DivX 5
Duration                                 : 2h 16mn
Bit rate                                 : 1 677 Kbps
Width                                    : 640 pixels
Height                                   : 480 pixels
Display aspect ratio                     : 16:9
Frame rate                               : 23.976 fps
Color space                              : YUV
Chroma subsampling                       : 4:2:0
Bit depth                                : 8 bits
Scan type                                : Progressive
Compression mode                         : Lossy
Bits/(Pixel*Frame)                       : 0.228
Stream size                              : 1.60 GiB (92%)
Writing library                          : Lavc52.58.0

Audio
ID                                       : 1
Format                                   : MPEG Audio
Format version                           : Version 1
Format profile                           : Layer 3
Mode                                     : Joint stereo
Mode extension                           : MS Stereo
Codec ID                                 : 55
Codec ID/Hint                            : MP3
Duration                                 : 2h 16mn
Bit rate mode                            : Constant
Bit rate                                 : 128 Kbps
Channel(s)                               : 2 channels
Sampling rate                            : 44.1 KHz
Compression mode                         : Lossy
Stream size                              : 125 MiB (7%)
Alignment                                : Aligned on interleaves
Interleave, duration                     : 26 ms (0.63 video frame)
Interleave, preload duration             : 522 ms